<svg width="30.000000" height="30.000000" viewBox="0 0 30 30" fill="none" xmlns="http://www.w3.org/2000/svg" xmlns:xlink="http://www.w3.org/1999/xlink">
	<desc>
			Created with Pixso.
	</desc>
	<defs/>
	<path id="in" d="M25.6 0L4.39 0C1.97 0 0 1.97 0 4.39L0 25.6C0 28.02 1.97 30 4.39 30L25.6 30C28.02 30 30 28.02 30 25.6L30 4.39C30 1.97 28.02 0 25.6 0ZM10.6 23.78L7.08 23.78L7.08 11.48L10.6 11.48L10.6 23.78ZM10.6 9.72L7.08 9.72L7.08 6.21L10.6 6.21L10.6 9.72ZM22.91 23.78L19.39 23.78L19.39 16.75C19.39 15.78 18.6 15 17.63 15C16.66 15 15.87 15.78 15.87 16.75L15.87 23.78L12.36 23.78L12.36 11.48L15.87 11.48L15.87 12.14C16.79 11.86 17.39 11.48 18.51 11.48C20.89 11.48 22.91 13.62 22.91 16.15L22.91 23.78Z" fill="#21243D" fill-opacity="1.000000" fill-rule="nonzero"/>
</svg>
