<svg width="30.000000" height="30.000000" viewBox="0 0 30 30" fill="none" xmlns="http://www.w3.org/2000/svg" xmlns:xlink="http://www.w3.org/1999/xlink">
	<desc>
			Created with Pixso.
	</desc>
	<defs/>
	<path id="Vector" d="M21.72 0L8.27 0C3.71 0 0 3.71 0 8.27L0 21.72C0 26.28 3.71 30 8.27 30L21.72 30C26.28 30 30 26.28 30 21.72L30 8.27C30 3.71 26.28 0 21.72 0ZM27.33 21.72C27.33 24.81 24.81 27.33 21.72 27.33L8.27 27.33C5.18 27.33 2.66 24.81 2.66 21.72L2.66 8.27C2.66 5.18 5.18 2.66 8.27 2.66L21.72 2.66C24.81 2.66 27.33 5.18 27.33 8.27L27.33 21.72L27.33 21.72Z" fill="#21243D" fill-opacity="1.000000" fill-rule="nonzero"/>
	<path id="Vector" d="M15 7.27C10.73 7.27 7.26 10.73 7.26 15C7.26 19.26 10.73 22.73 15 22.73C19.26 22.73 22.73 19.26 22.73 15C22.73 10.73 19.26 7.27 15 7.27ZM15 20.06C12.2 20.06 9.93 17.79 9.93 15C9.93 12.2 12.2 9.93 15 9.93C17.79 9.93 20.06 12.2 20.06 15C20.06 17.79 17.79 20.06 15 20.06Z" fill="#21243D" fill-opacity="1.000000" fill-rule="nonzero"/>
	<path id="Vector" d="M23.05 5.01C22.54 5.01 22.03 5.22 21.67 5.58C21.31 5.94 21.1 6.45 21.1 6.96C21.1 7.47 21.31 7.98 21.67 8.34C22.03 8.7 22.54 8.91 23.05 8.91C23.56 8.91 24.07 8.7 24.43 8.34C24.79 7.98 25 7.47 25 6.96C25 6.45 24.79 5.94 24.43 5.58C24.07 5.22 23.56 5.01 23.05 5.01Z" fill="#21243D" fill-opacity="1.000000" fill-rule="nonzero"/>
</svg>
