<svg width="37.000000" height="30.000000" viewBox="0 0 37 30" fill="none" xmlns="http://www.w3.org/2000/svg" xmlns:xlink="http://www.w3.org/1999/xlink">
	<desc>
			Created with Pixso.
	</desc>
	<defs/>
	<path id="Vector" d="M36.92 3.55C35.55 4.15 34.08 4.55 32.56 4.74C34.13 3.81 35.32 2.33 35.89 0.56C34.42 1.43 32.81 2.05 31.09 2.39C29.7 0.91 27.72 0 25.56 0C21.37 0 17.99 3.4 17.99 7.57C17.99 8.17 18.04 8.74 18.17 9.29C11.88 8.99 6.31 5.97 2.57 1.38C1.91 2.51 1.53 3.81 1.53 5.2C1.53 7.82 2.88 10.15 4.89 11.49C3.68 11.47 2.48 11.12 1.47 10.56C1.47 10.58 1.47 10.61 1.47 10.64C1.47 14.32 4.1 17.38 7.54 18.08C6.92 18.25 6.25 18.33 5.55 18.33C5.07 18.33 4.58 18.3 4.12 18.2C5.1 21.2 7.88 23.4 11.19 23.47C8.62 25.49 5.35 26.7 1.81 26.7C1.19 26.7 0.59 26.67 0 26.6C3.35 28.76 7.32 30 11.61 30C25.54 30 33.15 18.46 33.15 8.46C33.15 8.12 33.14 7.8 33.12 7.48C34.63 6.41 35.89 5.08 36.92 3.55Z" fill="#21243D" fill-opacity="1.000000" fill-rule="nonzero"/>
</svg>
